<mxfile host="app.diagrams.net" modified="2021-01-16T20:51:28.993Z" agent="5.0 (Windows NT 10.0; Win64; x64) AppleWebKit/537.36 (KHTML, like Gecko) Chrome/87.0.4280.141 Safari/537.36" etag="GTBZonDTTFni_YF3vogq" version="14.2.4" type="github">
  <diagram id="KB4TAVWYJjP2b1iC8MeP" name="Page-1">
    <mxGraphModel dx="1038" dy="556" grid="1" gridSize="10" guides="1" tooltips="1" connect="1" arrows="1" fold="1" page="1" pageScale="1" pageWidth="850" pageHeight="1100" math="0" shadow="0">
      <root>
        <mxCell id="0" />
        <mxCell id="1" parent="0" />
        <mxCell id="RslJJifI626ULMp2X_Of-2" value="Orchestrates" style="edgeStyle=orthogonalEdgeStyle;rounded=0;orthogonalLoop=1;jettySize=auto;html=1;exitX=0.75;exitY=0.67;exitDx=0;exitDy=0;exitPerimeter=0;entryX=0.926;entryY=0.222;entryDx=0;entryDy=0;entryPerimeter=0;" edge="1" parent="1" source="Py6CbWugdNumiMJfZk3--1" target="RslJJifI626ULMp2X_Of-1">
          <mxGeometry relative="1" as="geometry">
            <mxPoint x="380" y="140" as="targetPoint" />
          </mxGeometry>
        </mxCell>
        <mxCell id="Py6CbWugdNumiMJfZk3--1" value="Kubernetes&#xa;Engine" style="html=1;fillColor=#5184F3;strokeColor=none;verticalAlign=top;labelPosition=center;verticalLabelPosition=bottom;align=center;spacingTop=-6;fontSize=11;fontStyle=1;fontColor=#999999;shape=mxgraph.gcp2.hexIcon;prIcon=container_engine" parent="1" vertex="1">
          <mxGeometry x="300" y="190" width="66" height="58.5" as="geometry" />
        </mxCell>
        <mxCell id="RslJJifI626ULMp2X_Of-1" value="Cluster" style="rounded=1;whiteSpace=wrap;html=1;" vertex="1" parent="1">
          <mxGeometry x="30" y="130" width="200" height="90" as="geometry" />
        </mxCell>
        <mxCell id="RslJJifI626ULMp2X_Of-5" value="Runs On" style="edgeStyle=orthogonalEdgeStyle;rounded=0;orthogonalLoop=1;jettySize=auto;html=1;entryX=0.5;entryY=0.16;entryDx=0;entryDy=0;entryPerimeter=0;" edge="1" parent="1" source="RslJJifI626ULMp2X_Of-3" target="RslJJifI626ULMp2X_Of-4">
          <mxGeometry relative="1" as="geometry" />
        </mxCell>
        <mxCell id="RslJJifI626ULMp2X_Of-3" value="Pod" style="rounded=1;whiteSpace=wrap;html=1;" vertex="1" parent="1">
          <mxGeometry x="140" y="180" width="90" height="30" as="geometry" />
        </mxCell>
        <mxCell id="RslJJifI626ULMp2X_Of-4" value="Compute&#xa;Engine" style="html=1;fillColor=#5184F3;strokeColor=none;verticalAlign=top;labelPosition=center;verticalLabelPosition=bottom;align=center;spacingTop=-6;fontSize=11;fontStyle=1;fontColor=#999999;shape=mxgraph.gcp2.hexIcon;prIcon=compute_engine" vertex="1" parent="1">
          <mxGeometry x="52" y="280" width="66" height="58.5" as="geometry" />
        </mxCell>
        <mxCell id="RslJJifI626ULMp2X_Of-6" value="Node" style="rounded=1;whiteSpace=wrap;html=1;" vertex="1" parent="1">
          <mxGeometry x="50" y="190" width="90" height="30" as="geometry" />
        </mxCell>
      </root>
    </mxGraphModel>
  </diagram>
</mxfile>
